<?xml version="1.0" encoding="utf-8"?>
<!-- Generator: Adobe Illustrator 20.0.0, SVG Export Plug-In . SVG Version: 6.00 Build 0)  -->
<svg version="1.1" id="Layer_1" xmlns="http://www.w3.org/2000/svg" xmlns:xlink="http://www.w3.org/1999/xlink" x="0px" y="0px"
	 viewBox="0 0 960 560" enable-background="new 0 0 960 560" xml:space="preserve">
<path fill="#1D2EC6" d="M391,245.4"/>
<path fill="#1D2EC6" d="M664.7,320c-2.2,0-4-1.8-4-4v-36c0-17.6-14.4-32-32-32s-32,14.4-32,32v36c0,2.2-1.8,4-4,4s-4-1.8-4-4v-36
	c0-22.1,17.9-40,40-40s40,17.9,40,40v36C668.7,318.2,666.9,320,664.7,320z"/>
<path fill="#1D2EC6" d="M340,240c-13.1,0-24.7,6.3-32,16v-48c0-2.2-1.8-4-4-4s-4,1.8-4,4v72c0,22.1,17.9,40,40,40s40-17.9,40-40
	C380,257.9,362.1,240,340,240z M340,312c-17.6,0-32-14.4-32-32c0-17.6,14.4-32,32-32s32,14.4,32,32C372,297.6,357.6,312,340,312z"/>
<path fill="#1D2EC6" d="M755,204c-2.2,0-4,1.8-4,4v48c-8-9.7-19.1-16-32.2-16c-22.1,0-40.1,17.9-40.1,40c0,22.1,18.1,40,40.1,40
	s40.1-17.9,40.1-40v-72C759,205.8,757.2,204,755,204z M718.7,312c-17.6,0-32-14.4-32-32c0-17.6,14.4-32,32-32s32,14.4,32,32
	C750.7,297.6,736.3,312,718.7,312z"/>
<path fill="#1D2EC6" d="M430,240c-22.1,0-40,17.9-40,40c0,22.1,17.9,40,40,40c14.2,0,27.5-7.7,34.6-20c1.1-1.9,0.5-4.4-1.5-5.5
	c-1.9-1.1-4.4-0.5-5.5,1.5c-5.7,9.9-16.3,16-27.7,16c-16.3,0-29.8-12.2-31.7-28H466c2.2,0,4-1.8,4-4C470,257.9,452.1,240,430,240z
	 M430,248c16.3,0,29.8,12.2,31.7,28h-63.5C400.2,260.2,413.7,248,430,248z"/>
<path fill="#1D2EC6" d="M430,439.9c-0.7,0-1.4-0.2-2-0.5c-1.9-1.1-2.6-3.6-1.5-5.5l180-311.8c1.1-1.9,3.6-2.6,5.5-1.5
	c1.9,1.1,2.6,3.6,1.5,5.5l-180,311.8C432.7,439.2,431.4,439.9,430,439.9z"/>
<path fill="#1D2EC6" d="M193.7,320h-32.3c-1.4,0-2.7-0.8-3.5-2c-0.7-1.2-0.7-2.8,0-4l37-64c0.7-1.2,2-2,3.5-2s2.7,0.8,3.5,2l16.2,28
	c0.7,1.2,0.7,2.8,0,4l-20.8,36C196.5,319.2,195.2,320,193.7,320z M168.3,312h23.1l18.5-32l-11.5-20L168.3,312z"/>
<path fill="#1D2EC6" d="M286,320h-73.8c-1.4,0-2.7-0.8-3.5-2c-0.7-1.2-0.7-2.8,0-4l16.2-28c0.7-1.2,2-2,3.5-2h41.5
	c1.4,0,2.7,0.8,3.5,2l16.2,28c0.7,1.2,0.7,2.8,0,4C288.7,319.2,287.4,320,286,320z M219.1,312h59.9l-11.5-20h-36.8L219.1,312z"/>
<path fill="#1D2EC6" d="M260.6,276h-32.2c-1.4,0-2.7-0.8-3.5-2l-20.8-36c-0.7-1.2-0.7-2.8,0-4l16.1-27.9c0.7-1.2,2-2,3.5-2
	s2.7,0.8,3.5,2l36.9,63.9c0.7,1.2,0.7,2.8,0,4C263.3,275.2,262,276,260.6,276z M230.7,268h23l-30-51.9L212.2,236L230.7,268z"/>
<path fill="#1D2EC6" d="M772,318c-1.1,0-2-0.9-2-2v-18c0-1.1,0.9-2,2-2s2,0.9,2,2v18C774,317.1,773.1,318,772,318z"/>
<path fill="#1D2EC6" d="M790,318c-6.1,0-11-4.9-11-11s4.9-11,11-11s11,4.9,11,11S796.1,318,790,318z M790,300c-3.9,0-7,3.1-7,7
	s3.1,7,7,7s7-3.1,7-7S793.9,300,790,300z"/>
<path fill="#1D2EC6" d="M558,245.4c-1-0.6-2.1-1.1-3.2-1.6l-4,7c1.1,0.5,2.2,1,3.2,1.6c15.3,8.8,20.5,28.4,11.7,43.7
	c-8.8,15.3-28.4,20.5-43.7,11.7c-1.1-0.6-2-1.3-3-2l-4,7c1,0.7,2,1.3,3,1.9c6.3,3.6,13.2,5.4,19.9,5.4c13.8,0,27.3-7.2,34.7-20
	C583.7,280.9,577.1,256.4,558,245.4z"/>
<path fill="#1D2EC6" d="M499,292.4l4.6-8L479.1,242c-1.1-1.9-3.5-2.6-5.5-1.5c-1.9,1.1-2.6,3.6-1.5,5.5L499,292.4z"/>
</svg>
