<?xml version="1.0" encoding="UTF-8"?>
<svg width="161px" height="80px" viewBox="0 0 161 80" version="1.1" xmlns="http://www.w3.org/2000/svg" xmlns:xlink="http://www.w3.org/1999/xlink">
    <!-- Generator: Sketch 52.6 (67491) - http://www.bohemiancoding.com/sketch -->
    <title>beyondio_logo</title>
    <desc>Created with Sketch.</desc>
    <g id="Page-1" stroke="none" stroke-width="1" fill="none" fill-rule="evenodd">
        <g id="Desktop" transform="translate(-78.000000, -1787.000000)" fill="#1D2EC6">
            <g id="beyondio" transform="translate(0.000000, 1668.000000)">
                <g id="beyondio_logo" transform="translate(78.000000, 119.000000)">
                    <path d="M127,50 C126.45,50 126,49.55 126,49 L126,40 C126,35.6 122.4,32 118,32 C113.6,32 110,35.6 110,40 L110,49 C110,49.55 109.55,50 109,50 C108.45,50 108,49.55 108,49 L108,40 C108,34.475 112.475,30 118,30 C123.525,30 128,34.475 128,40 L128,49 C128,49.55 127.55,50 127,50 Z" id="Path"></path>
                    <path d="M46,30 C42.725,30 39.825,31.575 38,34 L38,22 C38,21.45 37.55,21 37,21 C36.45,21 36,21.45 36,22 L36,40 C36,45.525 40.475,50 46,50 C51.525,50 56,45.525 56,40 C56,34.475 51.525,30 46,30 Z M46,48 C41.6,48 38,44.4 38,40 C38,35.6 41.6,32 46,32 C50.4,32 54,35.6 54,40 C54,44.4 50.4,48 46,48 Z" id="Shape" fill-rule="nonzero"></path>
                    <path d="M149.026488,21 C148.477887,21 148.029032,21.45 148.029032,22 L148.029032,34 C146.034118,31.575 143.266175,30 139.999504,30 C134.488556,30 130,34.475 130,40 C130,45.525 134.513492,50 139.999504,50 C145.485517,50 149.999009,45.525 149.999009,40 L149.999009,22 C150.023945,21.45 149.57509,21 149.026488,21 Z M139.974568,48 C135.585758,48 131.994914,44.4 131.994914,40 C131.994914,35.6 135.585758,32 139.974568,32 C144.363378,32 147.954222,35.6 147.954222,40 C147.954222,44.4 144.363378,48 139.974568,48 Z" id="Shape" fill-rule="nonzero"></path>
                    <path d="M68,30 C62.475,30 58,34.475 58,40 C58,45.525 62.475,50 68,50 C71.55,50 74.875,48.075 76.65,45 C76.925,44.525 76.775,43.9 76.275,43.625 C75.8,43.35 75.175,43.5 74.9,44 C73.475,46.475 70.825,48 67.975,48 C63.9,48 60.525,44.95 60.05,41 L77,41 C77.55,41 78,40.55 78,40 C78,34.475 73.525,30 68,30 Z M68,32 C72.075,32 75.45,35.05 75.925,39 L60.05,39 C60.55,35.05 63.925,32 68,32 Z" id="Shape" fill-rule="nonzero"></path>
                    <path d="M68.0054423,80 C67.8304847,80 67.655527,79.9499723 67.5055633,79.8749307 C67.0306782,79.5997783 66.8557205,78.9744319 67.130654,78.4991686 L112.119769,0.505965865 C112.394703,0.0307026019 113.019552,-0.14439439 113.494437,0.130758026 C113.969322,0.405910441 114.144279,1.03125684 113.869346,1.5065201 L68.8802307,79.4997229 C68.6802791,79.824903 68.3553577,80 68.0054423,80 Z" id="Path"></path>
                    <path d="M8.89591837,50 L0.985714286,50 C0.642857143,50 0.324489796,49.8 0.128571429,49.5 C-0.0428571429,49.2 -0.0428571429,48.8 0.128571429,48.5 L9.18979592,32.5 C9.36122449,32.2 9.67959184,32 10.0469388,32 C10.4142857,32 10.7081633,32.2 10.9040816,32.5 L14.8714286,39.5 C15.0428571,39.8 15.0428571,40.2 14.8714286,40.5 L9.77755102,49.5 C9.58163265,49.8 9.26326531,50 8.89591837,50 Z M2.6755102,48 L8.33265306,48 L12.8632653,40 L10.0469388,35 L2.6755102,48 Z" id="Shape" fill-rule="nonzero"></path>
                    <path d="M31.9932886,50 L13.9823063,50 C13.6406345,50 13.3233679,49.8 13.1281269,49.5 C12.957291,49.2 12.957291,48.8 13.1281269,48.5 L17.0817572,41.5 C17.252593,41.2 17.5698597,41 17.9359365,41 L28.0640635,41 C28.4057352,41 28.7230018,41.2 28.9182428,41.5 L32.8718731,48.5 C33.042709,48.8 33.042709,49.2 32.8718731,49.5 C32.652227,49.8 32.3349603,50 31.9932886,50 Z M15.6662599,48 L30.2849298,48 L27.4783405,43 L18.4972544,43 L15.6662599,48 Z" id="Shape" fill-rule="nonzero"></path>
                    <path d="M26.0110565,39 L18.0995086,39 C17.7555283,39 17.4361179,38.7997218 17.2395577,38.4993046 L12.1289926,29.4867872 C11.9570025,29.18637 11.9570025,28.7858136 12.1289926,28.4853964 L16.0847666,21.5006954 C16.2567568,21.2002782 16.5761671,21 16.9447174,21 C17.3132678,21 17.6081081,21.2002782 17.8046683,21.5006954 L26.8710074,37.4979138 C27.0429975,37.798331 27.0429975,38.1988873 26.8710074,38.4993046 C26.6744472,38.7997218 26.3550369,39 26.0110565,39 Z M18.6646192,36.9972184 L24.3157248,36.9972184 L16.9447174,24.0041725 L14.1191646,28.9860918 L18.6646192,36.9972184 Z" id="Shape" fill-rule="nonzero"></path>
                    <path d="M153.5,50 C153.225,50 153,49.7545455 153,49.4545455 L153,44.5454545 C153,44.2454545 153.225,44 153.5,44 C153.775,44 154,44.2454545 154,44.5454545 L154,49.4545455 C154,49.7545455 153.775,50 153.5,50 Z" id="Path"></path>
                    <path d="M158,50 C156.336364,50 155,48.6636364 155,47 C155,45.3363636 156.336364,44 158,44 C159.663636,44 161,45.3363636 161,47 C161,48.6636364 159.663636,50 158,50 Z M158,45.0909091 C156.936364,45.0909091 156.090909,45.9363636 156.090909,47 C156.090909,48.0636364 156.936364,48.9090909 158,48.9090909 C159.063636,48.9090909 159.909091,48.0636364 159.909091,47 C159.909091,45.9363636 159.063636,45.0909091 158,45.0909091 Z" id="Shape" fill-rule="nonzero"></path>
                    <path d="M99.9217975,31.3984273 C99.6678022,31.249017 99.3884074,31.1245085 99.1090126,31 L98.0930314,32.7431193 C98.3724262,32.8676278 98.651821,32.9921363 98.9058163,33.1415465 C102.791944,35.3328965 104.11272,40.2136304 101.877561,44.0235911 C99.6424027,47.8335518 94.664095,49.1284404 90.777967,46.9370904 C90.4985722,46.7876802 90.2699765,46.6133683 90.0159812,46.4390564 L89,48.1821756 C89.2539953,48.3564875 89.5079906,48.5058978 89.7619859,48.655308 C91.3621562,49.5517693 93.1147237,50 94.8164921,50 C98.3216272,50 101.750564,48.2070773 103.630129,45.0196592 C106.449476,40.2385321 104.773108,34.1376147 99.9217975,31.3984273 Z" id="Path"></path>
                    <path d="M85.8508167,43 L87,41.0161282 L80.8793499,30.5016077 C80.6045452,30.0304381 80.0049714,29.8568494 79.5053265,30.1296317 C79.0306638,30.4024141 78.8557881,31.022374 79.1305928,31.4935436 L85.8508167,43 Z" id="Path"></path>
                </g>
            </g>
        </g>
    </g>
</svg>