<?xml version="1.0" encoding="UTF-8"?>
<svg width="170px" height="90px" viewBox="0 0 170 90" version="1.1" xmlns="http://www.w3.org/2000/svg" xmlns:xlink="http://www.w3.org/1999/xlink">
    <!-- Generator: Sketch 52.6 (67491) - http://www.bohemiancoding.com/sketch -->
    <title>Group 11</title>
    <desc>Created with Sketch.</desc>
    <defs>
        <polygon id="path-1" points="0.0842635015 0.312317757 54.7947027 0.312317757 54.7947027 13.4515075 0.0842635015 13.4515075"></polygon>
    </defs>
    <g id="Page-1" stroke="none" stroke-width="1" fill="none" fill-rule="evenodd">
        <g id="Desktop" transform="translate(-41.000000, -7546.000000)">
            <g id="Group-11" transform="translate(41.000000, 7546.000000)">
                <polygon id="Fill-1" fill="#1D1D1B" points="5 90 72 90 72 82 5 82"></polygon>
                <polygon id="Fill-2" fill="#1D1D1B" points="0 78 8 78 8 19 0 19"></polygon>
                <g id="Group-10" transform="translate(17.000000, 0.000000)">
                    <path d="M13.3418724,48.8667383 L17.6608309,48.8667383 L11.5344748,36.5356822 L6.40193769,36.5356822 L0.224732938,48.8667383 L4.54459941,48.8667383 L5.47394955,46.9223084 L12.4088902,46.9223084 L13.3418724,48.8667383 Z M6.83460534,44.0738972 L8.88308012,39.7852523 L8.98613947,39.7852523 L11.0427864,44.0738972 L6.83460534,44.0738972 Z M30.1659703,36.5356822 L30.1659703,44.2012056 L30.0606409,44.2012056 L23.4021899,36.5356822 L18.8035638,36.5356822 L18.8035638,48.8667383 L22.5250504,48.8667383 L22.5250504,41.0835234 L22.6303798,41.0835234 L29.3887122,48.8667383 L33.887457,48.8667383 L33.887457,36.5356822 L30.1659703,36.5356822 Z M50.0096617,36.5356822 L35.2331306,36.5356822 L35.2331306,39.698243 L40.6693976,39.698243 L40.6693976,48.8667383 L44.5733947,48.8667383 L44.5733947,39.698243 L50.0096617,39.698243 L50.0096617,36.5356822 Z M68.5762344,48.8667383 L72.3862522,36.5356822 L68.1340326,36.5356822 L66.0478754,44.459486 L65.942546,44.459486 L63.7919199,36.5356822 L59.4992938,36.5356822 L57.3645579,44.459486 L57.2592285,44.459486 L55.1744332,36.5356822 L50.8890712,36.5356822 L54.6437003,48.8667383 L59.4725074,48.8667383 L61.5927151,41.0629159 L61.6984985,41.0629159 L63.8200682,48.8667383 L68.5762344,48.8667383 Z M77.4425163,39.3584486 L86.7632582,39.3584486 L86.7632582,36.5356822 L73.5385193,36.5356822 L73.5385193,48.8667383 L86.9475846,48.8667383 L86.9475846,46.0302336 L77.4425163,46.0302336 L77.4425163,43.8655327 L86.3782611,43.8655327 L86.3782611,41.2552523 L77.4425163,41.2552523 L77.4425163,39.3584486 Z M101.549323,44.2154019 L101.549323,44.0748131 C103.074783,43.7107477 104.184828,42.8415701 104.184828,40.596271 C104.184828,37.909972 102.862309,36.5356822 99.3896172,36.5356822 L88.9838012,36.5356822 L88.9838012,48.8667383 L92.8873442,48.8667383 L92.8873442,44.9091869 L97.6199021,44.9091869 L99.9693828,48.8667383 L104.492644,48.8667383 L101.549323,44.2154019 Z M98.4493709,42.1056542 L92.8873442,42.1056542 L92.8873442,39.6071121 L98.4493709,39.6071121 C99.4717923,39.6071121 99.8840297,40.0146822 99.8840297,40.8485981 C99.8840297,41.6980841 99.4717923,42.1056542 98.4493709,42.1056542 Z M116.041647,36.5356822 L106.043074,36.5356822 L106.043074,48.8667383 L109.947071,48.8667383 L109.947071,44.8546916 L116.041647,44.8546916 C119.52705,44.8546916 120.86773,43.4978037 120.86773,40.6979346 C120.86773,37.909972 119.542487,36.5356822 116.041647,36.5356822 Z M115.04919,42.1308411 L109.947071,42.1308411 L109.947071,39.4669813 L115.04919,39.4669813 C116.126546,39.4669813 116.576466,39.8947009 116.576466,40.7986822 C116.576466,41.6870935 116.126546,42.1308411 115.04919,42.1308411 Z M126.259958,39.3584486 L135.581154,39.3584486 L135.581154,36.5356822 L122.356415,36.5356822 L122.356415,48.8667383 L135.765481,48.8667383 L135.765481,46.0302336 L126.259958,46.0302336 L126.259958,43.8655327 L135.196157,43.8655327 L135.196157,41.2552523 L126.259958,41.2552523 L126.259958,39.3584486 Z M149.164104,36.5356822 L149.164104,44.2012056 L149.058774,44.2012056 L142.400323,36.5356822 L137.801697,36.5356822 L137.801697,48.8667383 L141.523184,48.8667383 L141.523184,41.0835234 L141.628513,41.0835234 L148.386846,48.8667383 L152.885591,48.8667383 L152.885591,36.5356822 L149.164104,36.5356822 Z" id="Fill-3" fill="#1D1D1B"></path>
                    <path d="M14.4553674,30.9570551 L14.4553674,27.8375411 L5.08922493,27.8375411 L5.08922493,18.6259991 L1.1856819,18.6259991 L1.1856819,30.9570551 L14.4553674,30.9570551 Z M26.8356552,18.6259991 L26.8356552,25.6110178 C26.8356552,27.6126907 25.3996344,28.2254196 23.2417442,28.2254196 C21.082492,28.2254196 19.6473792,27.6126907 19.6473792,25.6110178 L19.6473792,18.6259991 L15.7438362,18.6259991 L15.7438362,25.6778776 C15.7438362,30.0997841 18.6798926,31.3609617 23.2417442,31.3609617 C27.8022338,31.3609617 30.7396522,30.0997841 30.7396522,25.6778776 L30.7396522,18.6259991 L26.8356552,18.6259991 Z M44.2022902,23.4376159 L48.8626611,23.4376159 C48.7627798,20.1390458 45.9583852,18.2220925 40.7545691,18.2220925 C35.5167027,18.2220925 32.4335484,20.2956626 32.4335484,24.7917561 C32.4335484,29.2873916 35.5167027,31.3609617 40.7545691,31.3609617 C45.9583852,31.3609617 48.8113585,29.4440084 48.8971656,25.8867 L44.187762,25.8867 C44.0679045,27.1506252 43.0345869,28.255186 40.7491211,28.255186 C38.0536878,28.255186 36.7248125,26.9834757 36.7248125,24.7917561 C36.7248125,22.5995785 38.0536878,21.3278682 40.7491211,21.3278682 C43.0332249,21.3278682 44.0837947,22.4988308 44.2022902,23.4376159 Z M62.0469935,30.9570551 L66.3654979,30.9570551 L60.2395958,18.6259991 L55.1070588,18.6259991 L48.929854,30.9570551 L53.2497205,30.9570551 L54.1786166,29.0126252 L61.1140113,29.0126252 L62.0469935,30.9570551 Z M55.5392724,26.164214 L57.5882012,21.8755692 L57.6908065,21.8755692 L59.7479074,26.164214 L55.5392724,26.164214 Z M77.1277086,22.342214 L81.6314475,22.342214 C81.5102279,19.0885224 78.5859757,18.2220925 74.1562398,18.2220925 C69.6901834,18.2220925 66.8081537,19.1040925 66.8081537,22.2094103 C66.8081537,24.6795598 68.4294089,25.5881206 71.1779608,25.8642607 L75.8769223,26.3295318 C76.7976463,26.4169991 77.4532309,26.6693262 77.4532309,27.4313449 C77.4532309,28.2753355 76.5792694,28.6709991 74.4241033,28.6709991 C72.4455454,28.6709991 71.2873763,28.3550178 71.0136107,26.8511299 L66.5016997,26.8511299 C66.6397175,30.5293355 69.4046136,31.3609617 74.2252487,31.3609617 C79.2638065,31.3609617 82.0641151,30.5852047 82.0641151,27.1478776 C82.0641151,24.6557467 80.5350231,23.5887374 77.7442487,23.346943 L72.8845691,22.9183075 C71.7658985,22.815728 71.2764801,22.5940832 71.2764801,21.9836439 C71.2764801,21.2894009 71.9674772,20.8484009 73.9896196,20.8484009 C75.8669341,20.8484009 76.9238599,21.2326159 77.1277086,22.342214 Z" id="Fill-5" fill="#1D1D1B"></path>
                    <g id="Group-9" transform="translate(0.454006, 0.000000)">
                        <mask id="mask-2" fill="white">
                            <use xlink:href="#path-1"></use>
                        </mask>
                        <g id="Clip-8"></g>
                        <path d="M10.7107264,4.43230187 L15.2144653,4.43230187 C15.0932457,1.17861028 12.1689935,0.312180374 7.73834955,0.312180374 C3.27229318,0.312180374 0.391171513,1.19463832 0.391171513,4.29949813 C0.391171513,6.77010561 2.01242671,7.67820841 4.76052463,7.95480654 L9.45948605,8.41961963 C10.3806641,8.50754486 11.0362487,8.75941402 11.0362487,9.52143271 C11.0362487,10.3654234 10.1622872,10.7615449 8.00666706,10.7615449 C6.0281092,10.7615449 4.87039407,10.4451056 4.59617448,8.94121776 L0.0842635015,8.94121776 C0.222735312,12.6198813 2.98763145,13.4515075 7.80826647,13.4515075 C12.8459163,13.4515075 15.6466789,12.6757505 15.6466789,9.23842336 C15.6466789,6.74583458 14.1180409,5.67928318 11.3272665,5.43748879 L6.46713294,5.00839533 C5.34891632,4.90627383 4.85904392,4.68462897 4.85904392,4.07373178 C4.85904392,3.37948879 5.55049496,2.93894673 7.57263739,2.93894673 C9.44995193,2.93894673 10.5064237,3.32270374 10.7107264,4.43230187 Z M17.4318303,13.0476009 L21.3353733,13.0476009 L21.3353733,0.71654486 L17.4318303,0.71654486 L17.4318303,13.0476009 Z M34.9510113,0.71654486 L34.9510113,8.38161028 L34.8456819,8.38161028 L28.1872309,0.71654486 L23.5886047,0.71654486 L23.5886047,13.047143 L27.3100914,13.047143 L27.3100914,5.26392804 L27.4154208,5.26392804 L34.1737531,13.047143 L38.6724979,13.047143 L38.6724979,0.71654486 L34.9510113,0.71654486 Z M54.7947027,0.71654486 L40.0181715,0.71654486 L40.0181715,3.87910561 L45.4548926,3.87910561 L45.4548926,13.047143 L49.3584356,13.047143 L49.3584356,3.87910561 L54.7947027,3.87910561 L54.7947027,0.71654486 Z" id="Fill-7" fill="#1D1D1B" mask="url(#mask-2)"></path>
                    </g>
                </g>
            </g>
        </g>
    </g>
</svg>