<?xml version="1.0" encoding="UTF-8"?>
<svg width="57px" height="55px" viewBox="0 0 57 55" version="1.1" xmlns="http://www.w3.org/2000/svg" xmlns:xlink="http://www.w3.org/1999/xlink">
    <!-- Generator: Sketch 52.5 (67469) - http://www.bohemiancoding.com/sketch -->
    <title>Combined Shape</title>
    <desc>Created with Sketch.</desc>
    <g id="Page-1" stroke="none" stroke-width="1" fill="none" fill-rule="evenodd">
        <g id="A4" transform="translate(-39.000000, -29.000000)" fill="#FFBF19">
            <path d="M58.622257,82.614864 L67.5,78 L76.377743,82.614864 C73.5838687,83.5138278 70.599724,84 67.5,84 C64.400276,84 61.4161313,83.5138278 58.622257,82.614864 Z M44.6215029,72.6995926 C41.0899204,68.0372152 39,62.2583893 39,56 C39,55.9086601 39.0004452,55.8174223 39.0013335,55.7262887 L46.3389925,62.7983739 L44.6215029,72.6995926 Z M44.3632946,39.646787 C47.9020971,34.8226755 52.9654942,31.1499091 58.8600409,29.3097673 L54.4217781,38.2016261 L44.3632946,39.646787 Z M76.1399591,29.3097673 C82.0345058,31.1499091 87.0979029,34.8226755 90.6367054,39.646787 L80.5782219,38.2016261 L76.1399591,29.3097673 Z M95.9986665,55.7262887 C95.9995548,55.8174223 96,55.9086601 96,56 C96,62.2583893 93.9100796,68.0372152 90.3784971,72.6995926 L88.6610075,62.7983739 L95.9986665,55.7262887 Z" id="Combined-Shape"></path>
        </g>
    </g>
</svg>